<svg width="34" height="34" viewBox="0 0 34 34" fill="none" xmlns="http://www.w3.org/2000/svg">
<path d="M23.7292 5.04301V2.83301C23.7292 2.25217 23.2475 1.77051 22.6667 1.77051C22.0858 1.77051 21.6042 2.25217 21.6042 2.83301V4.95801H12.3958V2.83301C12.3958 2.25217 11.9142 1.77051 11.3333 1.77051C10.7525 1.77051 10.2708 2.25217 10.2708 2.83301V5.04301C6.44584 5.39717 4.59 7.67801 4.30667 11.0638C4.27834 11.4747 4.61834 11.8147 5.015 11.8147H28.985C29.3958 11.8147 29.7358 11.4605 29.6933 11.0638C29.41 7.67801 27.5542 5.39717 23.7292 5.04301Z" fill="#BD3147"/>
<path d="M28.3333 13.9404H5.66667C4.8875 13.9404 4.25 14.5779 4.25 15.3571V24.0838C4.25 28.3338 6.375 31.1671 11.3333 31.1671H22.6667C27.625 31.1671 29.75 28.3338 29.75 24.0838V15.3571C29.75 14.5779 29.1125 13.9404 28.3333 13.9404ZM13.0475 25.7979C12.9767 25.8546 12.9058 25.9254 12.835 25.9679C12.75 26.0246 12.665 26.0671 12.58 26.0954C12.495 26.1379 12.41 26.1663 12.325 26.1804C12.2258 26.1946 12.1408 26.2088 12.0417 26.2088C11.8575 26.2088 11.6733 26.1663 11.5033 26.0954C11.3192 26.0246 11.1775 25.9254 11.0358 25.7979C10.7808 25.5288 10.625 25.1604 10.625 24.7921C10.625 24.4238 10.7808 24.0554 11.0358 23.7863C11.1775 23.6588 11.3192 23.5596 11.5033 23.4888C11.7583 23.3754 12.0417 23.3471 12.325 23.4038C12.41 23.4179 12.495 23.4463 12.58 23.4888C12.665 23.5171 12.75 23.5596 12.835 23.6163C12.9058 23.6729 12.9767 23.7296 13.0475 23.7863C13.3025 24.0554 13.4583 24.4238 13.4583 24.7921C13.4583 25.1604 13.3025 25.5288 13.0475 25.7979ZM13.0475 20.8396C12.7783 21.0946 12.41 21.2504 12.0417 21.2504C11.6733 21.2504 11.305 21.0946 11.0358 20.8396C10.7808 20.5704 10.625 20.2021 10.625 19.8338C10.625 19.4654 10.7808 19.0971 11.0358 18.8279C11.4325 18.4313 12.0558 18.3038 12.58 18.5304C12.7642 18.6013 12.92 18.7004 13.0475 18.8279C13.3025 19.0971 13.4583 19.4654 13.4583 19.8338C13.4583 20.2021 13.3025 20.5704 13.0475 20.8396ZM18.0058 25.7979C17.7367 26.0529 17.3683 26.2088 17 26.2088C16.6317 26.2088 16.2633 26.0529 15.9942 25.7979C15.7392 25.5288 15.5833 25.1604 15.5833 24.7921C15.5833 24.4238 15.7392 24.0554 15.9942 23.7863C16.5183 23.2621 17.4817 23.2621 18.0058 23.7863C18.2608 24.0554 18.4167 24.4238 18.4167 24.7921C18.4167 25.1604 18.2608 25.5288 18.0058 25.7979ZM18.0058 20.8396C17.935 20.8963 17.8642 20.9529 17.7933 21.0096C17.7083 21.0663 17.6233 21.1088 17.5383 21.1371C17.4533 21.1796 17.3683 21.2079 17.2833 21.2221C17.1842 21.2363 17.0992 21.2504 17 21.2504C16.6317 21.2504 16.2633 21.0946 15.9942 20.8396C15.7392 20.5704 15.5833 20.2021 15.5833 19.8338C15.5833 19.4654 15.7392 19.0971 15.9942 18.8279C16.1217 18.7004 16.2775 18.6013 16.4617 18.5304C16.9858 18.3038 17.6092 18.4313 18.0058 18.8279C18.2608 19.0971 18.4167 19.4654 18.4167 19.8338C18.4167 20.2021 18.2608 20.5704 18.0058 20.8396ZM22.9642 25.7979C22.695 26.0529 22.3267 26.2088 21.9583 26.2088C21.59 26.2088 21.2217 26.0529 20.9525 25.7979C20.6975 25.5288 20.5417 25.1604 20.5417 24.7921C20.5417 24.4238 20.6975 24.0554 20.9525 23.7863C21.4767 23.2621 22.44 23.2621 22.9642 23.7863C23.2192 24.0554 23.375 24.4238 23.375 24.7921C23.375 25.1604 23.2192 25.5288 22.9642 25.7979ZM22.9642 20.8396C22.8933 20.8963 22.8225 20.9529 22.7517 21.0096C22.6667 21.0663 22.5817 21.1088 22.4967 21.1371C22.4117 21.1796 22.3267 21.2079 22.2417 21.2221C22.1425 21.2363 22.0433 21.2504 21.9583 21.2504C21.59 21.2504 21.2217 21.0946 20.9525 20.8396C20.6975 20.5704 20.5417 20.2021 20.5417 19.8338C20.5417 19.4654 20.6975 19.0971 20.9525 18.8279C21.0942 18.7004 21.2358 18.6013 21.42 18.5304C21.675 18.4171 21.9583 18.3888 22.2417 18.4454C22.3267 18.4596 22.4117 18.4879 22.4967 18.5304C22.5817 18.5588 22.6667 18.6013 22.7517 18.6579C22.8225 18.7146 22.8933 18.7713 22.9642 18.8279C23.2192 19.0971 23.375 19.4654 23.375 19.8338C23.375 20.2021 23.2192 20.5704 22.9642 20.8396Z" fill="#BD3147"/>
</svg>
