<svg width="34" height="34" viewBox="0 0 34 34" fill="none" xmlns="http://www.w3.org/2000/svg">
<path d="M28.3899 9.66168L20.2299 3.95251C18.0058 2.39418 14.5916 2.47918 12.4524 4.13668L5.35492 9.67585C3.93826 10.7808 2.81909 13.0475 2.81909 14.8325V24.6075C2.81909 28.22 5.75159 31.1667 9.36409 31.1667H24.6358C28.2483 31.1667 31.1808 28.2342 31.1808 24.6217V15.0167C31.1808 13.1042 29.9483 10.7525 28.3899 9.66168ZM18.0624 25.5C18.0624 26.0808 17.5808 26.5625 16.9999 26.5625C16.4191 26.5625 15.9374 26.0808 15.9374 25.5V21.25C15.9374 20.6692 16.4191 20.1875 16.9999 20.1875C17.5808 20.1875 18.0624 20.6692 18.0624 21.25V25.5Z" fill="#BD3147"/>
</svg>
