<svg width="34" height="34" viewBox="0 0 34 34" fill="none" xmlns="http://www.w3.org/2000/svg">
<path d="M24.0833 2.83325H9.91667C6.00667 2.83325 2.83333 5.99242 2.83333 9.88825V18.3599V19.7766C2.83333 23.6724 6.00667 26.8316 9.91667 26.8316H12.0417C12.4242 26.8316 12.9342 27.0866 13.175 27.3983L15.3 30.2174C16.235 31.4641 17.765 31.4641 18.7 30.2174L20.825 27.3983C21.0942 27.0441 21.5192 26.8316 21.9583 26.8316H24.0833C27.9933 26.8316 31.1667 23.6724 31.1667 19.7766V9.88825C31.1667 5.99242 27.9933 2.83325 24.0833 2.83325ZM18.4167 19.4791H9.91667C9.33583 19.4791 8.85417 18.9974 8.85417 18.4166C8.85417 17.8358 9.33583 17.3541 9.91667 17.3541H18.4167C18.9975 17.3541 19.4792 17.8358 19.4792 18.4166C19.4792 18.9974 18.9975 19.4791 18.4167 19.4791ZM24.0833 12.3958H9.91667C9.33583 12.3958 8.85417 11.9141 8.85417 11.3333C8.85417 10.7524 9.33583 10.2708 9.91667 10.2708H24.0833C24.6642 10.2708 25.1458 10.7524 25.1458 11.3333C25.1458 11.9141 24.6642 12.3958 24.0833 12.3958Z" fill="#BD3147"/>
</svg>
