<svg width="34" height="34" viewBox="0 0 34 34" fill="none" xmlns="http://www.w3.org/2000/svg">
<g clip-path="url(#clip0_8_2573)">
<path d="M29.2117 11.9708C27.7242 5.42579 22.015 2.47913 17 2.47913C17 2.47913 17 2.47913 16.9858 2.47913C11.985 2.47913 6.26167 5.41163 4.77417 11.9566C3.11667 19.2666 7.59334 25.4575 11.645 29.3533C13.1467 30.7983 15.0733 31.5208 17 31.5208C18.9267 31.5208 20.8533 30.7983 22.3408 29.3533C26.3925 25.4575 30.8692 19.2808 29.2117 11.9708ZM17 19.0683C14.535 19.0683 12.5375 17.0708 12.5375 14.6058C12.5375 12.1408 14.535 10.1433 17 10.1433C19.465 10.1433 21.4625 12.1408 21.4625 14.6058C21.4625 17.0708 19.465 19.0683 17 19.0683Z" fill="#BD3147"/>
</g>
<defs>
<clipPath id="clip0_8_2573">
<rect width="34" height="34" fill="white"/>
</clipPath>
</defs>
</svg>
