<svg width="444" height="264" viewBox="0 0 444 264" fill="none" xmlns="http://www.w3.org/2000/svg">
<path d="M116.32 236.56C116.32 236.72 116.213 236.853 116 236.96C113.493 238.027 110.453 239.013 106.88 239.92C103.36 240.773 99.44 241.2 95.12 241.2C90.32 241.2 85.5467 240.613 80.8 239.44C76.1067 238.267 71.8667 236.48 68.08 234.08C64.3467 231.68 61.3067 228.64 58.96 224.96C56.6133 221.227 55.44 216.853 55.44 211.84C55.44 207.52 56.1067 203.76 57.44 200.56C58.7733 197.307 60.5333 194.507 62.72 192.16C64.9067 189.813 67.3867 187.893 70.16 186.4C72.9333 184.853 75.76 183.627 78.64 182.72C81.52 181.813 84.3467 181.2 87.12 180.88C89.8933 180.507 92.3467 180.32 94.48 180.32C99.12 180.32 103.253 180.693 106.88 181.44C110.56 182.187 113.6 182.933 116 183.68C116.213 183.787 116.32 183.947 116.32 184.16L117.12 195.2C117.12 195.573 116.96 195.76 116.64 195.76C116.587 195.76 116.533 195.76 116.48 195.76C116.48 195.707 116.453 195.68 116.4 195.68C115.76 195.413 114.747 195.04 113.36 194.56C111.973 194.08 110.32 193.6 108.4 193.12C106.48 192.64 104.347 192.24 102 191.92C99.6533 191.547 97.1467 191.36 94.48 191.36C90.8533 191.36 87.36 191.867 84 192.88C80.64 193.84 77.6533 195.227 75.04 197.04C72.4267 198.853 70.3467 201.013 68.8 203.52C67.2533 206.027 66.48 208.8 66.48 211.84C66.48 214.24 66.96 216.373 67.92 218.24C68.88 220.053 70.1333 221.653 71.68 223.04C73.28 224.373 75.0667 225.493 77.04 226.4C79.0667 227.307 81.1467 228.053 83.28 228.64C85.4133 229.173 87.4933 229.573 89.52 229.84C91.6 230.053 93.4667 230.16 95.12 230.16C97.52 230.16 99.84 229.947 102.08 229.52C104.373 229.04 106.453 228.507 108.32 227.92C110.187 227.28 111.84 226.64 113.28 226C114.773 225.307 115.92 224.747 116.72 224.32C116.773 224.32 116.8 224.32 116.8 224.32C116.853 224.267 116.907 224.24 116.96 224.24C117.387 224.24 117.547 224.427 117.44 224.8L116.32 236.56ZM130.186 239.92C129.706 239.92 129.466 239.68 129.466 239.2V182.32C129.466 181.84 129.706 181.6 130.186 181.6H139.786C140.266 181.6 140.506 181.84 140.506 182.32V228.16C140.506 228.64 140.746 228.88 141.226 228.88H186.506C186.932 228.88 187.092 229.093 186.986 229.52L183.786 239.6C183.679 239.813 183.519 239.92 183.306 239.92H130.186ZM198.485 239.92C198.112 239.92 197.925 239.733 197.925 239.36V182.16C197.925 181.787 198.112 181.6 198.485 181.6H208.405C208.778 181.6 208.965 181.787 208.965 182.16V239.36C208.965 239.733 208.778 239.92 208.405 239.92H198.485ZM222.159 181.52H266.959C269.465 181.52 271.812 182.053 273.999 183.12C276.239 184.133 278.185 185.547 279.839 187.36C281.545 189.12 282.879 191.173 283.839 193.52C284.799 195.867 285.252 198.373 285.199 201.04C285.145 203.547 284.612 205.893 283.599 208.08C282.639 210.267 281.305 212.187 279.599 213.84C277.945 215.44 275.999 216.72 273.759 217.68C271.519 218.587 269.145 219.04 266.639 219.04H233.199C232.772 219.04 232.559 219.253 232.559 219.68V239.28C232.559 239.707 232.345 239.92 231.919 239.92H222.159C221.732 239.92 221.519 239.707 221.519 239.28V182.24C221.519 181.76 221.732 181.52 222.159 181.52ZM232.559 207.36C232.559 207.787 232.772 208 233.199 208H266.799C267.812 208 268.745 207.813 269.599 207.44C270.505 207.067 271.305 206.56 271.999 205.92C272.692 205.227 273.225 204.453 273.599 203.6C273.972 202.693 274.159 201.733 274.159 200.72C274.159 199.653 273.945 198.64 273.519 197.68C273.145 196.667 272.612 195.787 271.919 195.04C271.279 194.293 270.532 193.707 269.679 193.28C268.825 192.8 267.919 192.56 266.959 192.56H233.199C232.772 192.56 232.559 192.773 232.559 193.2V207.36ZM331.105 241.2C326.412 241.2 322.172 240.96 318.385 240.48C314.652 240 311.398 239.467 308.625 238.88C305.905 238.24 303.718 237.653 302.065 237.12C300.465 236.533 299.425 236.133 298.945 235.92C298.785 235.813 298.705 235.707 298.705 235.6L297.505 223.28C297.505 222.907 297.638 222.72 297.905 222.72C297.958 222.72 297.985 222.747 297.985 222.8C298.038 222.8 298.092 222.8 298.145 222.8C298.892 223.227 300.145 223.867 301.905 224.72C303.665 225.52 305.932 226.32 308.705 227.12C311.478 227.92 314.732 228.64 318.465 229.28C322.198 229.867 326.412 230.16 331.105 230.16C337.238 230.16 342.038 229.493 345.505 228.16C349.025 226.773 350.785 224.96 350.785 222.72C350.785 221.92 350.358 221.173 349.505 220.48C348.652 219.733 347.292 219.093 345.425 218.56C343.558 217.973 341.185 217.52 338.305 217.2C335.425 216.88 331.932 216.72 327.825 216.72C322.705 216.72 318.358 216.4 314.785 215.76C311.265 215.12 308.305 214.293 305.905 213.28C303.558 212.213 301.692 211.04 300.305 209.76C298.972 208.48 297.958 207.2 297.265 205.92C296.625 204.587 296.225 203.333 296.065 202.16C295.905 200.987 295.825 200.027 295.825 199.28C295.825 195.493 296.865 192.373 298.945 189.92C301.078 187.467 303.798 185.547 307.105 184.16C310.412 182.72 314.118 181.733 318.225 181.2C322.385 180.613 326.465 180.32 330.465 180.32C334.092 180.32 337.398 180.56 340.385 181.04C343.425 181.467 346.092 181.973 348.385 182.56C350.678 183.147 352.545 183.733 353.985 184.32C355.425 184.853 356.358 185.227 356.785 185.44C356.945 185.44 357.025 185.547 357.025 185.76L357.825 197.68C357.932 198 357.798 198.16 357.425 198.16C357.372 198.16 357.318 198.16 357.265 198.16C357.265 198.107 357.238 198.08 357.185 198.08C356.225 197.493 354.865 196.827 353.105 196.08C351.398 195.28 349.372 194.533 347.025 193.84C344.678 193.147 342.092 192.56 339.265 192.08C336.492 191.6 333.558 191.36 330.465 191.36C325.452 191.36 321.398 191.627 318.305 192.16C315.212 192.693 312.812 193.36 311.105 194.16C309.398 194.907 308.252 195.76 307.665 196.72C307.132 197.627 306.865 198.48 306.865 199.28C306.865 201.52 308.732 203.147 312.465 204.16C316.198 205.173 321.318 205.68 327.825 205.68C329.798 205.68 332.012 205.733 334.465 205.84C336.918 205.947 339.425 206.213 341.985 206.64C344.545 207.013 347.052 207.573 349.505 208.32C351.958 209.067 354.145 210.107 356.065 211.44C357.985 212.72 359.532 214.32 360.705 216.24C361.878 218.16 362.465 220.453 362.465 223.12C362.465 223.707 362.358 224.587 362.145 225.76C361.932 226.88 361.452 228.107 360.705 229.44C360.012 230.773 358.972 232.133 357.585 233.52C356.198 234.907 354.332 236.187 351.985 237.36C349.692 238.48 346.838 239.387 343.425 240.08C340.012 240.827 335.905 241.2 331.105 241.2Z" fill="#304145"/>
<path d="M60 46.2L53.6 73.8C62 70.2 78.4 68.8 88.2 70.2C90 70.4 91.2 71.6 91.8 73.2C92.6 74.8 92.2 76.4 91.2 77.8L83.2 88.2C81.8 89.8 79.6 90.4 77.4 89.6C76.4 89.2 75 89 73.4 89C66 89 53 93 48.6 95.6L40.8 129C37 145.2 32 157 13 158C11.6 158 10.2 157.4 9.2 156.2C8.2 155 7.8 153.6 8.2 152.2L33.8 40.6C29.6 40.4 25.6 40.6 21.4 41.4C19.2 41.8 17.2 40.8 16.2 38.8C15.4 37 15.8 34.8 17.2 33.2L25.6 25.4C26.6 24.6 27.4 24.2 28.6 24C31.6 23.8 34.6 23.8 37.8 24L38 22.6C38.6 20.4 40.4 18.8 42.6 18.8H60.4C61.8 18.8 63.2 19.6 64 20.6C65 21.8 65.2 23.2 65 24.6L63.8 29.4C68.8 31 77.6 33.6 85.2 33.6C90 33.6 94.4 32.4 96.8 29.4C100 25.6 100.8 20.4 99.8 15.6C99.4 13.6 100.2 11.6 101.8 10.6C103.4 9.39999 105.6 9.59999 107.2 10.6L123.4 22.2C124.8 23.2 125.4 24.8 125.2 26.6C123 46.4 109.2 52.4 93.6 52.4C82.2 52.4 69.6 49.2 60 46.2ZM135.541 115.8C139.941 123.8 145.541 130.4 153.341 130.4C156.341 130.4 159.741 129.4 163.341 127C164.141 126.4 164.941 126.2 165.941 126.2C167.341 126.2 168.741 126.8 169.741 128L175.541 135.8C176.941 137.6 176.741 140.2 175.141 141.8C167.941 149.2 158.141 156.6 147.741 156.6C126.941 156.6 118.541 129.8 115.141 113.4L111.541 129C107.741 145.4 102.741 157.2 83.5406 158C82.1406 158.2 80.7406 157.6 79.7406 156.4C78.7406 155.2 78.5406 153.8 78.7406 152.4L108.741 22.8C109.141 20.6 110.941 19 113.341 19H130.941C132.541 19 133.741 19.6 134.741 20.8C135.541 22 135.941 23.2 135.541 24.6C141.141 21.2 147.341 19 153.941 19C165.341 19 175.141 24.4 180.941 34.2C186.941 44.4 187.341 57.2 184.341 68.6C178.941 90.4 159.341 113.6 135.541 115.8ZM129.341 51.6L119.541 93.8C122.741 97 126.941 97.6 131.741 96.8C145.741 94.6 155.141 75.2 156.341 62.6C157.141 56.6 157.141 45.8 149.541 44C142.941 42.4 134.341 47.4 129.341 51.6ZM239.992 126.6L244.992 133.2C246.592 135.2 246.392 137.8 244.592 139.6C233.792 149.8 220.392 158 204.992 158C183.392 158 170.992 143 175.992 122C179.392 107.6 189.392 96 201.792 88.8C196.392 86.4 192.192 82 190.592 75C187.592 61.6 196.992 46.6 205.592 37C213.192 28.2 224.592 19.2 236.592 18.6C251.192 17.8 259.192 29.4 262.592 42C263.192 44 262.392 46 260.592 47.2L242.992 59C241.392 60 239.192 60 237.592 58.8C235.992 57.6 235.392 55.6 235.992 53.6C236.592 51.2 239.192 41.8 238.392 38.4C228.792 41.6 217.192 65 216.392 73.6C216.392 74 216.392 76 216.792 76.4C217.192 77 219.992 76.6 220.592 76.4C223.792 76 226.792 75 230.192 74.6C235.192 74 241.392 74.6 242.592 80.6C243.392 85 242.792 89.4 239.192 92.4C236.792 94.4 233.592 95.4 230.592 96.6C219.792 100.8 203.192 110.6 203.392 124.4C203.592 130 207.992 136.4 214.192 134.4C220.792 132.4 227.192 128.6 232.792 124.4C234.192 123.2 236.192 123.2 237.792 124C238.992 124.6 239.592 125.6 239.992 126.6ZM306.105 71.2C319.105 79.4 332.505 92 333.505 108.4C334.505 127 323.705 143.6 307.505 152.2C300.505 155.8 292.505 158 284.705 158C260.505 158 248.905 138.2 245.905 116.4C245.705 114.6 246.505 112.8 248.305 111.8L264.505 102.4C265.905 101.6 267.705 101.6 269.105 102.4C270.705 103.2 271.505 104.8 271.505 106.6C271.505 127 281.105 134.8 289.905 134.8C299.105 134.8 307.505 126.4 303.505 114.8C300.705 106.8 294.105 100 287.105 95.4C277.705 89 267.505 80.6 261.505 70.6C255.905 61 255.705 50.6 261.105 40.8C268.505 27.4 285.905 18.2 301.305 18.2C316.705 18.2 329.705 27.2 333.305 45.6C333.705 47.6 332.905 49.6 331.105 50.6L315.705 59.4C314.105 60.4 312.505 60.4 311.105 59.6C309.505 58.8 308.705 57.4 308.505 55.6C308.305 49 306.305 36.8 297.505 36.6C292.305 36.4 286.305 40.8 285.105 45.8C282.105 56.6 299.305 65.6 306.105 71.2ZM380.353 76C386.553 74.8 399.353 73.4 403.953 72.8L416.353 21C416.753 18.8 418.753 17.2 420.953 17.2H438.553C440.153 17.2 441.353 18 442.353 19C443.153 20.2 443.553 21.6 443.153 23C439.353 39.8 435.353 56.4 431.353 73.2C431.553 73.2 431.953 73.2 432.353 73.2C433.553 73.4 434.753 74.2 435.553 75.4C436.153 76.4 436.353 77.6 436.153 79L434.753 84.8C434.153 87.2 431.953 88.8 429.553 88.4C428.953 88.4 428.353 88.4 427.753 88.2C425.953 95.4 424.153 102.6 422.553 109.8V110C421.353 114.8 419.953 120.4 419.953 125.6C419.753 126.4 419.753 129.2 420.353 130.4C421.753 129.8 424.153 127.4 424.953 126.6C425.953 125.6 427.153 125 428.553 125.2C429.953 125.2 431.153 125.8 432.153 127L436.553 132.8C437.953 134.6 437.753 137 436.353 138.6C428.753 147.8 415.753 159.4 402.753 157.8C390.353 156.4 387.153 144.4 389.753 133.8L400.153 89.2C393.553 89.6 382.753 91.6 376.353 93L368.353 127.4C364.553 143.6 359.553 155.4 340.553 156.4C339.153 156.4 337.753 155.8 336.753 154.6C335.753 153.4 335.553 152 335.753 150.6L365.553 21C366.153 18.8 367.953 17.2 370.153 17.2H387.953C389.353 17.2 390.753 18 391.553 19C392.553 20.2 392.753 21.4 392.553 22.8L380.353 76Z" fill="#BD3147"/>
</svg>
