<svg width="10" height="10" viewBox="0 0 10 10" fill="none" xmlns="http://www.w3.org/2000/svg">
<path d="M5.7208 1.46211L6.45413 2.92878C6.55413 3.13294 6.8208 3.32878 7.0458 3.36628L8.37496 3.58711C9.22496 3.72878 9.42496 4.34544 8.81246 4.95378L7.77913 5.98711C7.60413 6.16211 7.50829 6.49961 7.56246 6.74128L7.8583 8.02044C8.09163 9.03294 7.55413 9.42461 6.6583 8.89544L5.41246 8.15794C5.18746 8.02461 4.81663 8.02461 4.58746 8.15794L3.34163 8.89544C2.44996 9.42461 1.9083 9.02878 2.14163 8.02044L2.43746 6.74128C2.49163 6.49961 2.3958 6.16211 2.2208 5.98711L1.18746 4.95378C0.579129 4.34544 0.774962 3.72878 1.62496 3.58711L2.95413 3.36628C3.17496 3.32878 3.44163 3.13294 3.54163 2.92878L4.27496 1.46211C4.67496 0.666276 5.32496 0.666276 5.7208 1.46211Z" fill="#FFCB45"/>
</svg>
